<?xml version="1.0" encoding="UTF-8" standalone="no"?>
<!-- Created with Inkscape (http://www.inkscape.org/) -->

<svg
   width="2000"
   height="1000"
   viewBox="0 0 529.16667 264.58333"
   version="1.1"
   id="svg1"
   inkscape:version="1.3.2 (091e20e, 2023-11-25)"
   sodipodi:docname="cos-logo-gradient.svg"
   xmlns:inkscape="http://www.inkscape.org/namespaces/inkscape"
   xmlns:sodipodi="http://sodipodi.sourceforge.net/DTD/sodipodi-0.dtd"
   xmlns:xlink="http://www.w3.org/1999/xlink"
   xmlns="http://www.w3.org/2000/svg"
   xmlns:svg="http://www.w3.org/2000/svg">
  <sodipodi:namedview
     id="namedview1"
     pagecolor="#505050"
     bordercolor="#eeeeee"
     borderopacity="1"
     inkscape:showpageshadow="0"
     inkscape:pageopacity="0"
     inkscape:pagecheckerboard="0"
     inkscape:deskcolor="#505050"
     inkscape:document-units="px"
     inkscape:zoom="0.48880253"
     inkscape:cx="1046.4348"
     inkscape:cy="552.3703"
     inkscape:window-width="2056"
     inkscape:window-height="1257"
     inkscape:window-x="0"
     inkscape:window-y="44"
     inkscape:window-maximized="0"
     inkscape:current-layer="layer1"
     showgrid="false" />
  <defs
     id="defs1">
    <linearGradient
       id="linearGradient1"
       inkscape:collect="always">
      <stop
         style="stop-color:#39ba72;stop-opacity:1;"
         offset="0"
         id="stop1" />
      <stop
         style="stop-color:#47b6dc;stop-opacity:1;"
         offset="1"
         id="stop2" />
    </linearGradient>
    <rect
       x="740.66448"
       y="70.883906"
       width="1146.4245"
       height="1116.7832"
       id="rect1" />
    <rect
       x="1189.6513"
       y="224.97188"
       width="701.91226"
       height="624.52193"
       id="rect2" />
    <linearGradient
       inkscape:collect="always"
       xlink:href="#linearGradient1"
       id="linearGradient2"
       x1="42.816503"
       y1="132.29166"
       x2="486.3497"
       y2="132.29166"
       gradientUnits="userSpaceOnUse" />
  </defs>
  <g
     inkscape:label="Layer 1"
     inkscape:groupmode="layer"
     id="layer1">
    <g
       id="g1"
       style="fill:url(#linearGradient2)">
      <path
         id="path1-2"
         style="fill:url(#linearGradient2);fill-opacity:1;stroke:none;stroke-width:2.065"
         d="M 146.62619,28.515055 A 103.80952,103.80952 0 0 0 42.816503,132.32474 103.80952,103.80952 0 0 0 146.62619,236.13442 a 103.80952,103.80952 0 0 0 64.07154,-22.17074 103.57821,103.57821 0 0 1 -30.88804,-38.58369 54.596249,54.596249 0 0 1 -33.1835,11.5409 54.596249,54.596249 0 0 1 -54.596154,-54.59615 54.596249,54.596249 0 0 1 54.596154,-54.596151 54.596249,54.596249 0 0 1 33.15818,11.520743 103.57821,103.57821 0 0 1 30.86995,-38.597644 103.80952,103.80952 0 0 0 -64.02813,-22.136633 z" />
      <path
         id="path3"
         style="color:#000000;-inkscape-font-specification:'Avenir Next Bold';display:inline;fill:url(#linearGradient2);stroke-width:0.275433;-inkscape-stroke:none"
         d="m 418.68347,28.448909 c -9.28693,0 -18.48977,1.209491 -27.57867,3.618901 -9.1763,2.252772 -17.49318,5.932576 -24.86255,11.034468 -6.89456,4.773141 -12.57831,10.832159 -17.00878,18.04696 a 103.57821,103.57821 0 0 1 28.33934,71.142422 103.57821,103.57821 0 0 1 -0.83922,11.73159 c 5.19235,2.25849 10.44998,4.26697 15.77991,5.99136 l 0.0145,0.005 0.0145,0.004 c 6.24106,1.96147 11.75467,3.82983 16.53181,5.59914 l 0.0744,0.0274 0.0755,0.0243 c 4.79796,1.54222 8.63311,3.31699 11.49282,5.22346 l 0.0951,0.0636 0.0992,0.0568 c 3.0746,1.78005 5.25473,3.71008 6.68123,5.70715 1.32221,1.85111 2.01953,4.06702 2.01953,7.0559 0,3.31214 -0.62281,5.92066 -1.72961,7.99589 -1.16572,2.18575 -2.68126,3.83282 -4.69015,5.12424 l -0.0522,0.0336 -0.0507,0.0346 c -1.89842,1.31428 -4.22517,2.31181 -7.07708,2.94556 -2.96966,0.65993 -6.02485,0.99115 -9.18343,0.99115 -6.92248,0 -13.96987,-1.71553 -21.25554,-5.26479 -6.78091,-3.55703 -12.21894,-7.82333 -16.44447,-12.77803 a 103.57821,103.57821 0 0 1 -30.50873,40.10556 c 7.74539,6.6227 16.86145,11.94706 27.31823,15.92357 l 0.0212,0.008 0.0207,0.007 c 13.14396,4.81328 26.78554,7.22591 40.84867,7.22591 9.66461,0 19.0794,-1.3034 28.20551,-3.91087 9.19808,-2.62802 17.4425,-6.69439 24.64088,-12.18789 7.25399,-5.53593 13.01563,-12.55283 17.1969,-20.9088 4.42907,-8.67036 6.58874,-18.78846 6.58874,-30.19505 0,-9.995 -1.98673,-18.58817 -6.17121,-25.56485 0,-0.002 -0.003,-0.004 -0.003,-0.006 -3.99521,-6.8378 -9.08405,-12.60377 -15.21095,-17.19894 -6.04134,-4.53103 -12.74852,-8.11784 -20.07525,-10.74819 -7.02412,-2.70038 -13.78679,-5.13527 -20.28662,-7.30188 l -0.0207,-0.007 -0.0207,-0.007 c -4.43249,-1.4184 -8.40872,-2.74445 -11.94346,-3.98064 -3.39978,-1.36312 -6.33639,-2.79541 -8.80308,-4.271572 -2.09491,-1.354636 -3.63822,-2.850237 -4.75268,-4.490164 -0.83318,-1.46766 -1.35083,-3.457211 -1.35083,-6.171199 0,-3.244467 0.68079,-5.498612 1.772,-7.082772 1.51642,-2.115297 3.25738,-3.697207 5.29528,-4.86172 l 0.0816,-0.04651 0.0796,-0.05116 c 2.10315,-1.352039 4.40306,-2.248286 7.00679,-2.709912 3.04441,-0.506491 5.98204,-0.756542 8.81704,-0.756542 5.30553,0 10.85434,1.358253 16.7385,4.216279 l 0.0553,0.02687 0.0563,0.0248 c 5.99992,2.666622 10.68401,6.244588 14.24977,10.782804 l 2.59003,3.296441 2.88353,-3.042709 31.90143,-33.656861 -2.71819,-2.487186 C 474.8239,44.77865 464.49225,38.680845 452.75014,34.579801 441.27189,30.50835 429.8983,28.448909 418.68347,28.448909 Z" />
      <path
         id="path1"
         style="fill:url(#linearGradient2);fill-opacity:1;stroke:none;stroke-width:1.73"
         d="M 273.99464,45.323332 A 86.968559,86.968559 0 0 0 187.02631,132.29167 86.968559,86.968559 0 0 0 273.99464,219.26 86.968559,86.968559 0 0 0 360.96298,132.29167 86.968559,86.968559 0 0 0 273.99464,45.323332 Z m 0,44.890283 a 42.078194,42.078194 0 0 1 42.07805,42.078055 42.078194,42.078194 0 0 1 -42.07805,42.07805 42.078194,42.078194 0 0 1 -42.07805,-42.07805 42.078194,42.078194 0 0 1 42.07805,-42.078055 z" />
    </g>
  </g>
</svg>
