<?xml version="1.0" encoding="UTF-8" standalone="no"?>
<!-- Created with Inkscape (http://www.inkscape.org/) -->

<svg
   width="1000"
   height="224"
   viewBox="0 0 1000 224"
   version="1.1"
   id="svg1"
   xml:space="preserve"
   inkscape:version="1.3 (0e150ed, 2023-07-21)"
   sodipodi:docname="cos.svg"
   xmlns:inkscape="http://www.inkscape.org/namespaces/inkscape"
   xmlns:sodipodi="http://sodipodi.sourceforge.net/DTD/sodipodi-0.dtd"
   xmlns="http://www.w3.org/2000/svg"
   xmlns:svg="http://www.w3.org/2000/svg"><sodipodi:namedview
     id="namedview1"
     pagecolor="#505050"
     bordercolor="#eeeeee"
     borderopacity="1"
     inkscape:showpageshadow="0"
     inkscape:pageopacity="0"
     inkscape:pagecheckerboard="0"
     inkscape:deskcolor="#505050"
     inkscape:document-units="px"
     inkscape:zoom="1.2088565"
     inkscape:cx="530.66679"
     inkscape:cy="24.816841"
     inkscape:window-width="3424"
     inkscape:window-height="1387"
     inkscape:window-x="2581"
     inkscape:window-y="25"
     inkscape:window-maximized="0"
     inkscape:current-layer="layer1" /><defs
     id="defs1" /><g
     inkscape:label="Layer 1"
     inkscape:groupmode="layer"
     id="layer1"
     transform="translate(-0.5384183,-14.651094)"><path
       style="fill:#ee171e;fill-opacity:1;stroke-width:1.04585"
       d="m 190.36934,238.55598 c -7.2762,0.24809 -22.99417,-0.006 -34.92878,-0.56602 -11.93463,-0.5594 -28.5411,-2.0654 -36.90329,-3.34667 -8.36217,-1.28125 -20.843894,-3.85294 -27.737143,-5.71484 C 83.906869,227.06653 74.820315,224.22189 70.607771,222.607 66.395227,220.99211 58.566115,217.36744 53.209744,214.55217 47.853375,211.7369 39.706802,206.40716 35.10625,202.70832 30.505699,199.00947 24.095945,192.75187 20.862352,188.80256 17.628759,184.85321 13.070089,178.02305 10.731977,173.62438 8.3938634,169.22572 5.1628193,160.71684 3.5518794,154.71574 1.3149903,146.38287 0.60380448,139.51535 0.54209948,125.65203 0.48307018,112.38836 1.1276069,105.05486 2.9352621,98.423034 4.2959401,93.431052 6.9625755,86.052006 8.8611188,82.025155 10.759662,77.998301 15.097056,70.989956 18.499768,66.451054 21.902484,61.912151 29.222204,54.745801 34.765814,50.525829 c 5.543611,-4.21997 14.045115,-9.655706 18.89223,-12.079413 4.847117,-2.423705 15.253082,-6.567598 23.124369,-9.208648 7.871291,-2.641049 20.198611,-6.012711 27.394057,-7.492582 7.19543,-1.479871 19.66253,-3.526501 27.70467,-4.548065 10.05678,-1.277482 31.57872,-1.834095 68.93253,-1.782772 45.14091,0.06202 59.83574,0.602174 87.03604,3.199267 17.99904,1.718558 35.07551,3.493281 37.9477,3.943833 l 5.22217,0.819183 v 20.068724 c 0,11.037799 0.33247,20.068725 0.73883,20.068725 0.40635,0 2.59348,-2.118068 4.86027,-4.706816 2.2668,-2.588748 7.42706,-7.263998 11.46726,-10.389446 4.04017,-3.125445 12.34959,-8.172547 18.46536,-11.215783 6.11578,-3.043234 17.20922,-7.470298 24.65213,-9.837918 7.4429,-2.367621 20.60274,-5.546582 29.2441,-7.064359 8.64136,-1.517776 22.91815,-3.409634 31.7262,-4.20413 8.80804,-0.794494 31.68111,-1.444535 50.82903,-1.444535 19.14792,0 42.02099,0.650041 50.82906,1.444535 8.80804,0.794496 23.02835,2.676216 31.60068,4.181601 8.57234,1.505386 20.79221,4.377059 27.15523,6.381497 6.36306,2.004437 15.32914,5.220227 19.92465,7.146197 4.59549,1.925973 12.73557,6.341357 18.08906,9.811966 5.35347,3.470609 13.2488,9.968767 17.54518,14.440349 l 7.81161,8.130152 3.34344,-7.241175 c 1.8389,-3.982647 6.91204,-10.832947 11.27364,-15.222892 5.53698,-5.572969 11.42058,-9.65492 19.49607,-13.526101 6.36124,-3.049412 16.8925,-6.832781 23.40279,-8.407488 6.51029,-1.574707 18.73016,-3.666786 27.15524,-4.649065 10.47554,-1.221341 36.89082,-1.777552 83.55458,-1.759355 51.20284,0.01996 76.40535,0.633908 100.96181,2.459477 17.99904,1.33808 35.38885,2.807895 38.64398,3.266259 l 5.91847,0.833386 v 14.283979 c 0,7.856191 -0.41117,21.951352 -0.91369,31.32258 l -0.91367,17.038599 -3.6122,-0.746105 c -1.98671,-0.410359 -16.71762,-1.712008 -32.73537,-2.892555 -16.568,-1.221103 -47.84124,-2.178427 -72.54203,-2.22063 -35.41556,-0.06051 -44.33311,0.308853 -48.37877,2.003831 -2.72796,1.142907 -5.38561,3.422863 -5.90588,5.066571 -0.57926,1.83 -0.079,4.315351 1.29048,6.411083 1.23004,1.88239 2.37868,3.528144 2.5525,3.657233 0.17383,0.129087 26.3224,0.658987 58.10796,1.177553 48.19131,0.786223 59.17198,1.337223 66.09931,3.316814 4.56906,1.30568 12.35631,4.37265 17.30498,6.8155 4.94869,2.44285 11.91648,7.36833 15.48399,10.94554 3.56753,3.5772 7.84756,9.40761 9.51119,12.95645 1.66365,3.54885 3.73454,11.23742 4.60202,17.0857 1.15493,7.78609 1.17033,13.51847 0.0575,21.40858 -0.83583,5.92643 -2.90233,14.49226 -4.59223,19.03522 -2.31044,6.21117 -5.34924,10.54451 -12.25162,17.47092 -6.50497,6.52761 -12.22184,10.66614 -19.62343,14.20569 -5.74438,2.74705 -16.5203,6.64009 -23.9465,8.65119 -7.42619,2.01109 -20.58603,4.60006 -29.2441,5.75323 -8.65807,1.1532 -32.03508,2.64718 -51.94893,3.31996 -20.87302,0.7052 -50.46395,0.69951 -69.87095,-0.0134 -18.51517,-0.68017 -44.20821,-2.23349 -57.09563,-3.45181 -12.88742,-1.21831 -27.41491,-2.77261 -32.2833,-3.45398 -4.86841,-0.68137 -9.10137,-1.48926 -9.40659,-1.7953 -0.30521,-0.30605 -1.71841,-13.38246 -3.14045,-29.05871 -1.42204,-15.67625 -2.43889,-28.684 -2.25967,-28.90613 0.17921,-0.22211 11.52892,0.86226 25.22156,2.40969 13.69265,1.54743 36.1756,3.50781 49.9621,4.35638 13.78651,0.84859 40.44904,1.33513 59.25008,1.08122 29.88628,-0.40361 34.6569,-0.77291 37.94771,-2.93747 2.41266,-1.58695 3.764,-3.71755 3.764,-5.93452 0,-1.90229 -1.25331,-4.71543 -2.78514,-6.25143 -2.66093,-2.66815 -4.64193,-2.79269 -44.4149,-2.79269 -22.89637,0 -48.11939,-0.66166 -56.0512,-1.47036 -7.93181,-0.80869 -19.03879,-2.42035 -24.68218,-3.58146 -5.64341,-1.16114 -13.7213,-3.64572 -17.95089,-5.52133 -4.22957,-1.87558 -10.81878,-5.66397 -14.64267,-8.41864 -5.4311,-3.91246 -7.21208,-4.59782 -8.13862,-3.13195 -0.65235,1.0321 -1.19566,3.53833 -1.2074,5.56943 -0.0117,2.03109 -1.33005,8.00052 -2.92964,13.2654 -1.59957,5.26488 -5.14548,13.65685 -7.87977,18.64882 -2.86012,5.22166 -9.18075,13.22754 -14.88275,18.85084 -5.63877,5.56098 -14.48435,12.36401 -20.51989,15.7816 -5.83475,3.30391 -16.78523,8.22177 -24.3344,10.9286 -7.54916,2.70684 -18.81141,6.13366 -25.02722,7.61516 -6.2158,1.48151 -18.07064,3.64645 -26.34411,4.81099 -8.27348,1.16455 -27.20134,2.66235 -42.06192,3.32846 -15.10036,0.67686 -38.27485,0.68434 -52.53486,0.0169 -14.0336,-0.65679 -32.2338,-2.19441 -40.44489,-3.41695 -8.21107,-1.22255 -20.72843,-3.73365 -27.81631,-5.58024 -7.08788,-1.8466 -16.26025,-4.68927 -20.38303,-6.31709 -4.12277,-1.62781 -12.25164,-5.43907 -18.06413,-8.46946 -5.8125,-3.03039 -14.6669,-8.8998 -19.67644,-13.04312 -5.00955,-4.14333 -10.90707,-10.08197 -13.10561,-13.197 -2.19855,-3.11502 -4.46737,-5.67709 -5.0418,-5.69349 -0.57444,-0.0162 -1.05745,1.06983 -1.07337,2.41382 -0.0158,1.34399 -0.90867,11.14097 -1.98393,21.77106 -1.07526,10.63009 -2.15889,19.49385 -2.40808,19.69724 -0.24919,0.20339 -10.16629,1.71501 -22.038,3.35917 -11.87172,1.64416 -30.59859,3.9356 -41.61527,5.09208 -11.01668,1.15648 -28.24981,2.42547 -38.29585,2.81995 -10.04605,0.39449 -24.21879,0.92025 -31.49501,1.16834 z m 315.87253,-68.0349 c 11.46451,-0.44643 14.07679,-1.06128 22.28122,-5.24423 7.11157,-3.62579 10.35245,-6.32381 13.80103,-11.48931 2.47882,-3.71292 5.2111,-9.36307 6.07174,-12.5559 0.86064,-3.19282 1.2863,-10.51782 0.94592,-16.27781 -0.4062,-6.87403 -1.62053,-12.4247 -3.53389,-16.15336 -1.60325,-3.12438 -5.38172,-7.91527 -8.39661,-10.646431 -3.01486,-2.731152 -8.85685,-6.140874 -12.98217,-7.577152 -5.64919,-1.966831 -11.10981,-2.570973 -22.12264,-2.447557 -9.85305,0.110418 -16.66591,0.922655 -20.88864,2.490371 -3.44663,1.279582 -8.58193,3.858906 -11.41178,5.731834 -2.82986,1.872928 -6.8722,6.360265 -8.98301,9.971855 -3.19225,5.46194 -3.93537,8.61228 -4.41769,18.72792 -0.4313,9.04535 0.0365,14.02245 1.82611,19.4248 1.32329,3.99486 4.26042,9.38121 6.52695,11.96967 2.26655,2.58845 6.1648,5.97286 8.6628,7.52089 2.49799,1.54805 7.93743,3.76987 12.08766,4.93739 5.10456,1.436 11.74755,1.95914 20.533,1.61702 z m -293.5913,-8.05143 c 6.51029,0.0997 22.17678,-0.49813 34.81441,-1.32842 12.63763,-0.8303 33.18114,-2.63009 45.65225,-3.99951 12.47108,-1.36943 22.97065,-2.7866 23.33234,-3.14928 0.36169,-0.36268 0.028,-3.9887 -0.74164,-8.05781 -0.76961,-4.06911 -1.39927,-14.81445 -1.39927,-23.87854 v -16.48014 l -5.91845,-0.75962 c -3.25516,-0.4178 -16.66591,-1.39885 -29.80169,-2.18011 -13.13577,-0.78126 -35.08529,-1.42048 -48.7767,-1.42048 -13.69143,0 -29.98196,0.63978 -36.20122,1.42173 -6.21925,0.78195 -14.95534,2.68009 -19.41355,4.2181 -4.45821,1.53801 -9.90578,4.51131 -12.10572,6.60733 -2.19995,2.09603 -4.88394,5.50775 -5.96443,7.58161 -1.0805,2.07385 -1.96454,6.64965 -1.96454,10.16844 0,3.51879 0.84664,8.42961 1.88143,10.91294 1.0348,2.48332 4.1109,6.47793 6.8358,8.87692 2.7249,2.39899 8.15087,5.42642 12.05772,6.72758 3.90686,1.30116 11.32729,2.85903 16.48986,3.46192 5.16257,0.60289 14.7131,1.1777 21.2234,1.27734 z"
       id="path1" /></g></svg>
